<svg xmlns="http://www.w3.org/2000/svg" width="1400" height="2255" fill="none"><path fill="#1E1E1E" d="M0 0h1400v2255H0z"/><g clip-path="url(#a)"><rect width="1400" height="2255" fill="#0C0A1C" rx="40"/><rect width="1400" height="2255" fill="url(#b)" fill-opacity=".08" rx="40"/><g filter="url(#c)" opacity=".3"><g clip-path="url(#d)"><rect width="1117" height="1117" x="137.5" y="-556" fill="#fff" fill-opacity=".05" rx="558.5"/><path fill="#fff" fill-opacity=".03" d="M448.367 17.73h-96.743v91.225h96.743V17.73zm279.25 87.774h-96.743v91.226h96.743v-91.226zm-372.334 3.724H258.54v91.225h96.743v-91.225zM731.34 282.363h-96.743v91.225h96.743v-91.225zM258.445 17.393h-96.743v91.226h96.743V17.393zm569.702 441.828h-96.743v91.225h96.743v-91.225zm186.163-87.498h-96.74v91.225h96.74v-91.225z"/><path fill="#fff" fill-opacity=".03" d="M921.23 286.086h-96.743v91.225h96.743v-91.225zm377.92-178.72h-96.74v91.225h96.74v-91.225zm-98.67 87.498h-96.74v91.226h96.74v-91.226zM1012.45 17.73h-96.742v91.225h96.742V17.73zM354.042 374.093h-96.743v91.226h96.743v-91.226z"/><path fill="url(#e)" fill-opacity=".04" d="M1297.29-70.63h-96.75v91.225h96.75V-70.63z"/><path stroke="url(#f)" stroke-opacity=".08" stroke-width="2.419" d="M69.86-336.323h-94.325v88.944m94.325-88.944v88.944m0-88.944h94.324m-94.325 88.944h-94.324m94.325 0h94.324m-94.325 0v88.945m-94.324-88.945v88.945m188.649-177.889v88.944m0-88.944h94.324m-94.324 88.944h94.324m-94.324 0v88.945m94.324-177.889v88.944m0-88.944h94.325m-94.325 88.944h94.325m-94.325 0v88.945m94.325-177.889v88.944m0-88.944h94.324m-94.324 88.944h94.324m-94.324 0v88.945m94.324-177.889v88.944m0-88.944h94.325m-94.325 88.944h94.325m-94.325 0v88.945m94.325-177.889v88.944m0-88.944h94.324m-94.324 88.944h94.324m-94.324 0v88.945m94.324-177.889v88.944m0-88.944h94.325m-94.325 88.944h94.325m-94.325 0v88.945m94.325-177.889v88.944m0-88.944h94.324m-94.324 88.944h94.324m-94.324 0v88.945m94.324-177.889v88.944m0-88.944h94.324m-94.324 88.944h94.324m-94.324 0v88.945m94.324-177.889v88.944m0-88.944h94.321m-94.321 88.944h94.321m-94.321 0v88.945m94.321-177.889v88.944m0-88.944h94.33m-94.33 88.944h94.33m-94.33 0v88.945m94.33-177.889v88.944m0-88.944h94.32m-94.32 88.944h94.32m-94.32 0v88.945m94.32-177.889v88.944m0-88.944h94.33m-94.33 88.944h94.33m-94.33 0v88.945m94.33-177.889v88.944m0-88.944h94.32m-94.32 88.944h94.32m-94.32 0v88.945m94.32-177.889v88.944m0-88.944h94.33m-94.33 88.944h94.33m-94.33 0v88.945m94.33-177.889v88.944m0-88.944h94.32v88.944m-94.32 0h94.32m-94.32 0v88.945m94.32-88.945v88.945m-1509.19 0h-94.325m94.325 0h94.324m-94.325 0v88.944m-94.324-88.944v88.944m188.649-88.944h94.324m-94.324 0v88.944m94.324-88.944h94.325m-94.325 0v88.944m94.325-88.944h94.324m-94.324 0v88.944m94.324-88.944h94.325m-94.325 0v88.944m94.325-88.944h94.324m-94.324 0v88.944m94.324-88.944h94.325m-94.325 0v88.944m94.325-88.944h94.324m-94.324 0v88.944m94.324-88.944h94.324m-94.324 0v88.944m94.324-88.944h94.321m-94.321 0v88.944m94.321-88.944h94.33m-94.33 0v88.944m94.33-88.944h94.32m-94.32 0v88.944m94.32-88.944h94.33m-94.33 0v88.944m94.33-88.944h94.32m-94.32 0v88.944m94.32-88.944h94.33m-94.33 0v88.944m94.33-88.944h94.32m-94.32 0v88.944m94.32-88.944v88.944m-1509.19 0h-94.325m94.325 0h94.324m-94.325 0v88.945M-24.465-69.49v88.945M164.184-69.49h94.324m-94.324 0v88.945m94.324-88.945h94.325m-94.325 0v88.945m94.325-88.945h94.324m-94.324 0v88.945m94.324-88.945h94.325m-94.325 0v88.945m94.325-88.945h94.324m-94.324 0v88.945m94.324-88.945h94.325m-94.325 0v88.945m94.325-88.945h94.324m-94.324 0v88.945m94.324-88.945h94.324m-94.324 0v88.945m94.324-88.945h94.321m-94.321 0v88.945M1013.1-69.49h94.33m-94.33 0v88.945m94.33-88.945h94.32m-94.32 0v88.945m94.32-88.945h94.33m-94.33 0v88.945m94.33-88.945h94.32m-94.32 0v88.945m94.32-88.945h94.33m-94.33 0v88.945m94.33-88.945h94.32m-94.32 0v88.945m94.32-88.945v88.945m-1509.19 0h-94.325m94.325 0h94.324m-94.325 0v88.944m-94.324-88.944v88.944m188.649-88.944h94.324m-94.324 0v88.944m94.324-88.944h94.325m-94.325 0v88.944m94.325-88.944h94.324m-94.324 0v88.944m94.324-88.944h94.325m-94.325 0v88.944m94.325-88.944h94.324m-94.324 0v88.944m94.324-88.944h94.325m-94.325 0v88.944m94.325-88.944h94.324m-94.324 0v88.944m94.324-88.944h94.324m-94.324 0v88.944m94.324-88.944h94.321m-94.321 0v88.944m94.321-88.944h94.33m-94.33 0v88.944m94.33-88.944h94.32m-94.32 0v88.944m94.32-88.944h94.33m-94.33 0v88.944m94.33-88.944h94.32m-94.32 0v88.944m94.32-88.944h94.33m-94.33 0v88.944m94.33-88.944h94.32m-94.32 0v88.944m94.32-88.944v88.944m-1509.19 0h-94.325m94.325 0h94.324m-94.325 0v88.945m-94.324-88.945v88.945m188.649-88.945h94.324m-94.324 0v88.945m94.324-88.945h94.325m-94.325 0v88.945m94.325-88.945h94.324m-94.324 0v88.945m94.324-88.945h94.325m-94.325 0v88.945m94.325-88.945h94.324m-94.324 0v88.945m94.324-88.945h94.325m-94.325 0v88.945m94.325-88.945h94.324m-94.324 0v88.945m94.324-88.945h94.324m-94.324 0v88.945m94.324-88.945h94.321m-94.321 0v88.945m94.321-88.945h94.33m-94.33 0v88.945m94.33-88.945h94.32m-94.32 0v88.945m94.32-88.945h94.33m-94.33 0v88.945m94.33-88.945h94.32m-94.32 0v88.945m94.32-88.945h94.33m-94.33 0v88.945m94.33-88.945h94.32m-94.32 0v88.945m94.32-88.945v88.945m-1509.19 0h-94.325m94.325 0h94.324m-94.325 0v88.944m-94.324-88.944v88.944m188.649-88.944h94.324m-94.324 0v88.944m94.324-88.944h94.325m-94.325 0v88.944m94.325-88.944h94.324m-94.324 0v88.944m94.324-88.944h94.325m-94.325 0v88.944m94.325-88.944h94.324m-94.324 0v88.944m94.324-88.944h94.325m-94.325 0v88.944m94.325-88.944h94.324m-94.324 0v88.944m94.324-88.944h94.324m-94.324 0v88.944m94.324-88.944h94.321m-94.321 0v88.944m94.321-88.944h94.33m-94.33 0v88.944m94.33-88.944h94.32m-94.32 0v88.944m94.32-88.944h94.33m-94.33 0v88.944m94.33-88.944h94.32m-94.32 0v88.944m94.32-88.944h94.33m-94.33 0v88.944m94.33-88.944h94.32m-94.32 0v88.944m94.32-88.944v88.944m-1509.19 0h-94.325m94.325 0h94.324m-94.325 0v88.945m-94.324-88.945v88.945m188.649-88.945h94.324m-94.324 0v88.945m94.324-88.945h94.325m-94.325 0v88.945m94.325-88.945h94.324m-94.324 0v88.945m94.324-88.945h94.325m-94.325 0v88.945m94.325-88.945h94.324m-94.324 0v88.945m94.324-88.945h94.325m-94.325 0v88.945m94.325-88.945h94.324m-94.324 0v88.945m94.324-88.945h94.324m-94.324 0v88.945m94.324-88.945h94.321m-94.321 0v88.945m94.321-88.945h94.33m-94.33 0v88.945m94.33-88.945h94.32m-94.32 0v88.945m94.32-88.945h94.33m-94.33 0v88.945m94.33-88.945h94.32m-94.32 0v88.945m94.32-88.945h94.33m-94.33 0v88.945m94.33-88.945h94.32m-94.32 0v88.945m94.32-88.945v88.945m-1509.19 0h-94.325m94.325 0h94.324m-94.325 0v88.944m-94.324-88.944v88.944m188.649-88.944h94.324m-94.324 0v88.944m94.324-88.944h94.325m-94.325 0v88.944m94.325-88.944h94.324m-94.324 0v88.944m94.324-88.944h94.325m-94.325 0v88.944m94.325-88.944h94.324m-94.324 0v88.944m94.324-88.944h94.325m-94.325 0v88.944m94.325-88.944h94.324m-94.324 0v88.944m94.324-88.944h94.324m-94.324 0v88.944m94.324-88.944h94.321m-94.321 0v88.944m94.321-88.944h94.33m-94.33 0v88.944m94.33-88.944h94.32m-94.32 0v88.944m94.32-88.944h94.33m-94.33 0v88.944m94.33-88.944h94.32m-94.32 0v88.944m94.32-88.944h94.33m-94.33 0v88.944m94.33-88.944h94.32m-94.32 0v88.944m94.32-88.944v88.944m-1509.19 0h-94.325m94.325 0h94.324m-94.325 0v88.945m-94.324-88.945v88.945m188.649-88.945h94.324m-94.324 0v88.945m94.324-88.945h94.325m-94.325 0v88.945m94.325-88.945h94.324m-94.324 0v88.945m94.324-88.945h94.325m-94.325 0v88.945m94.325-88.945h94.324m-94.324 0v88.945m94.324-88.945h94.325m-94.325 0v88.945m94.325-88.945h94.324m-94.324 0v88.945m94.324-88.945h94.324m-94.324 0v88.945m94.324-88.945h94.321m-94.321 0v88.945m94.321-88.945h94.33m-94.33 0v88.945m94.33-88.945h94.32m-94.32 0v88.945m94.32-88.945h94.33m-94.33 0v88.945m94.33-88.945h94.32m-94.32 0v88.945m94.32-88.945h94.33m-94.33 0v88.945m94.33-88.945h94.32m-94.32 0v88.945m94.32-88.945v88.945m-1509.19 0h-94.325m94.325 0h94.324m-94.325 0v88.944m-94.324-88.944v88.944m188.649-88.944h94.324m-94.324 0v88.944m94.324-88.944h94.325m-94.325 0v88.944m94.325-88.944h94.324m-94.324 0v88.944m94.324-88.944h94.325m-94.325 0v88.944m94.325-88.944h94.324m-94.324 0v88.944m94.324-88.944h94.325m-94.325 0v88.944m94.325-88.944h94.324m-94.324 0v88.944m94.324-88.944h94.324m-94.324 0v88.944m94.324-88.944h94.321m-94.321 0v88.944m94.321-88.944h94.33m-94.33 0v88.944m94.33-88.944h94.32m-94.32 0v88.944m94.32-88.944h94.33m-94.33 0v88.944m94.33-88.944h94.32m-94.32 0v88.944m94.32-88.944h94.33m-94.33 0v88.944m94.33-88.944h94.32m-94.32 0v88.944m94.32-88.944v88.944m-1509.19 0h-94.325m94.325 0h94.324m-94.325 0v88.945m-94.324-88.945v88.945H69.86m94.324-88.945h94.324m-94.324 0v88.945m94.324-88.945h94.325m-94.325 0v88.945m94.325-88.945h94.324m-94.324 0v88.945m94.324-88.945h94.325m-94.325 0v88.945m94.325-88.945h94.324m-94.324 0v88.945m94.324-88.945h94.325m-94.325 0v88.945m94.325-88.945h94.324m-94.324 0v88.945m94.324-88.945h94.324m-94.324 0v88.945m94.324-88.945h94.321m-94.321 0v88.945m94.321-88.945h94.33m-94.33 0v88.945m94.33-88.945h94.32m-94.32 0v88.945m94.32-88.945h94.33m-94.33 0v88.945m94.33-88.945h94.32m-94.32 0v88.945m94.32-88.945h94.33m-94.33 0v88.945m94.33-88.945h94.32m-94.32 0v88.945m94.32-88.945v88.945h-94.32m-1414.87 0h94.324m0 0h94.324m0 0h94.325m0 0h94.324m0 0h94.325m0 0h94.324m0 0h94.325m0 0h94.324m0 0h94.324m0 0h94.321m0 0h94.33m0 0h94.32m0 0h94.33m0 0h94.32m0 0h94.33"/></g></g><g filter="url(#g)" opacity=".4"><rect width="820.5" height="820.5" x="290" y="-389.75" fill="#fff" fill-opacity=".05" rx="410.25"/></g><g filter="url(#h)" opacity=".8"><g clip-path="url(#i)"><rect width="600" height="600" x="396" y="-300" fill="#fff" fill-opacity=".05" rx="300"/><path fill="#fff" fill-opacity=".03" d="M562.983 8.18h-51.966v49.002h51.966V8.181zm150 47.15h-51.966v49.001h51.966V55.329zm-200 2h-51.966v49.001h51.966V57.329zm202 92.999h-51.966v49.002h51.966v-49.002zM460.966 8H409v49.002h51.966V8zm306.017 237.329h-51.966v49.002h51.966v-49.002zm100-47h-51.966v49.002h51.966v-49.002z"/><path fill="#fff" fill-opacity=".03" d="M816.983 152.329h-51.966v49.002h51.966v-49.002zM1019.98 56.33h-51.963v49.001h51.963V56.329zm-52.997 46.999h-51.966v49.002h51.966v-49.002zm-101-95.149h-51.966v49.002h51.966V8.181zM512.316 199.603h-51.965v49.001h51.965v-49.001z"/><path fill="url(#j)" fill-opacity=".04" d="M1018.98-39.282h-51.963V9.72h51.963v-49.002z"/><path stroke="url(#k)" stroke-opacity=".08" stroke-width="1.299" d="M359.667-182H309v47.777M359.667-182v47.777m0-47.777h50.666m-50.666 47.777H309m50.667 0h50.666m-50.666 0v47.777M309-134.223v47.777M410.333-182v47.777m0-47.777H461m-50.667 47.777H461m-50.667 0v47.777M461-182v47.777M461-182h50.667M461-134.223h50.667m-50.667 0v47.777M511.667-182v47.777m0-47.777h50.666m-50.666 47.777h50.666m-50.666 0v47.777M562.333-182v47.777m0-47.777H613m-50.667 47.777H613m-50.667 0v47.777M613-182v47.777M613-182h50.667M613-134.223h50.667m-50.667 0v47.777M663.667-182v47.777m0-47.777h50.666m-50.666 47.777h50.666m-50.666 0v47.777M714.333-182v47.777m0-47.777H765m-50.667 47.777H765m-50.667 0v47.777M765-182v47.777M765-182h50.667M765-134.223h50.667m-50.667 0v47.777M815.667-182v47.777m0-47.777h50.666m-50.666 47.777h50.666m-50.666 0v47.777M866.333-182v47.777m0-47.777H917m-50.667 47.777H917m-50.667 0v47.777M917-182v47.777M917-182h50.667M917-134.223h50.667m-50.667 0v47.777M967.667-182v47.777m0-47.777h50.663m-50.663 47.777h50.663m-50.663 0v47.777M1018.33-182v47.777m0-47.777H1069m-50.67 47.777H1069m-50.67 0v47.777M1069-182v47.777m0-47.777h50.67M1069-134.223h50.67m-50.67 0v47.777M1119.67-182v47.777m0-47.777h50.66v47.777m-50.66 0h50.66m-50.66 0v47.777m50.66-47.777v47.777m-810.663 0H309m50.667 0h50.666m-50.666 0v47.776M309-86.446v47.776m101.333-47.776H461m-50.667 0v47.776M461-86.446h50.667m-50.667 0v47.776m50.667-47.776h50.666m-50.666 0v47.776m50.666-47.776H613m-50.667 0v47.776M613-86.446h50.667m-50.667 0v47.776m50.667-47.776h50.666m-50.666 0v47.776m50.666-47.776H765m-50.667 0v47.776M765-86.446h50.667m-50.667 0v47.776m50.667-47.776h50.666m-50.666 0v47.776m50.666-47.776H917m-50.667 0v47.776M917-86.446h50.667m-50.667 0v47.776m50.667-47.776h50.663m-50.663 0v47.776m50.663-47.776H1069m-50.67 0v47.776M1069-86.446h50.67m-50.67 0v47.776m50.67-47.776h50.66m-50.66 0v47.776m50.66-47.776v47.776m-810.663 0H309m50.667 0h50.666m-50.666 0V9.108M309-38.669V9.107m101.333-47.776H461m-50.667 0V9.107M461-38.669h50.667m-50.667 0V9.107m50.667-47.776h50.666m-50.666 0V9.107m50.666-47.776H613m-50.667 0V9.107M613-38.669h50.667m-50.667 0V9.107m50.667-47.776h50.666m-50.666 0V9.107m50.666-47.776H765m-50.667 0V9.107M765-38.669h50.667m-50.667 0V9.107m50.667-47.776h50.666m-50.666 0V9.107m50.666-47.776H917m-50.667 0V9.107M917-38.669h50.667m-50.667 0V9.107m50.667-47.776h50.663m-50.663 0V9.107m50.663-47.776H1069m-50.67 0V9.107M1069-38.669h50.67m-50.67 0V9.107m50.67-47.776h50.66m-50.66 0V9.107m50.66-47.776V9.107m-810.663 0H309m50.667 0h50.666m-50.666 0v47.777M309 9.107v47.777M410.333 9.107H461m-50.667 0v47.777M461 9.107h50.667m-50.667 0v47.777m50.667-47.777h50.666m-50.666 0v47.777m50.666-47.777H613m-50.667 0v47.777M613 9.107h50.667m-50.667 0v47.777m50.667-47.777h50.666m-50.666 0v47.777m50.666-47.777H765m-50.667 0v47.777M765 9.107h50.667m-50.667 0v47.777m50.667-47.777h50.666m-50.666 0v47.777m50.666-47.777H917m-50.667 0v47.777M917 9.107h50.667m-50.667 0v47.777m50.667-47.777h50.663m-50.663 0v47.777m50.663-47.777H1069m-50.67 0v47.777M1069 9.107h50.67m-50.67 0v47.777m50.67-47.777h50.66m-50.66 0v47.777m50.66-47.777v47.777m-810.663 0H309m50.667 0h50.666m-50.666 0v47.777M309 56.884v47.777m101.333-47.777H461m-50.667 0v47.777M461 56.884h50.667m-50.667 0v47.777m50.667-47.777h50.666m-50.666 0v47.777m50.666-47.777H613m-50.667 0v47.777M613 56.884h50.667m-50.667 0v47.777m50.667-47.777h50.666m-50.666 0v47.777m50.666-47.777H765m-50.667 0v47.777M765 56.884h50.667m-50.667 0v47.777m50.667-47.777h50.666m-50.666 0v47.777m50.666-47.777H917m-50.667 0v47.777M917 56.884h50.667m-50.667 0v47.777m50.667-47.777h50.663m-50.663 0v47.777m50.663-47.777H1069m-50.67 0v47.777M1069 56.884h50.67m-50.67 0v47.777m50.67-47.777h50.66m-50.66 0v47.777m50.66-47.777v47.777m-810.663 0H309m50.667 0h50.666m-50.666 0v47.777M309 104.661v47.777m101.333-47.777H461m-50.667 0v47.777M461 104.661h50.667m-50.667 0v47.777m50.667-47.777h50.666m-50.666 0v47.777m50.666-47.777H613m-50.667 0v47.777M613 104.661h50.667m-50.667 0v47.777m50.667-47.777h50.666m-50.666 0v47.777m50.666-47.777H765m-50.667 0v47.777M765 104.661h50.667m-50.667 0v47.777m50.667-47.777h50.666m-50.666 0v47.777m50.666-47.777H917m-50.667 0v47.777M917 104.661h50.667m-50.667 0v47.777m50.667-47.777h50.663m-50.663 0v47.777m50.663-47.777H1069m-50.67 0v47.777m50.67-47.777h50.67m-50.67 0v47.777m50.67-47.777h50.66m-50.66 0v47.777m50.66-47.777v47.777m-810.663 0H309m50.667 0h50.666m-50.666 0v47.777M309 152.438v47.777m101.333-47.777H461m-50.667 0v47.777M461 152.438h50.667m-50.667 0v47.777m50.667-47.777h50.666m-50.666 0v47.777m50.666-47.777H613m-50.667 0v47.777M613 152.438h50.667m-50.667 0v47.777m50.667-47.777h50.666m-50.666 0v47.777m50.666-47.777H765m-50.667 0v47.777M765 152.438h50.667m-50.667 0v47.777m50.667-47.777h50.666m-50.666 0v47.777m50.666-47.777H917m-50.667 0v47.777M917 152.438h50.667m-50.667 0v47.777m50.667-47.777h50.663m-50.663 0v47.777m50.663-47.777H1069m-50.67 0v47.777m50.67-47.777h50.67m-50.67 0v47.777m50.67-47.777h50.66m-50.66 0v47.777m50.66-47.777v47.777m-810.663 0H309m50.667 0h50.666m-50.666 0v47.776M309 200.215v47.776m101.333-47.776H461m-50.667 0v47.776M461 200.215h50.667m-50.667 0v47.776m50.667-47.776h50.666m-50.666 0v47.776m50.666-47.776H613m-50.667 0v47.776M613 200.215h50.667m-50.667 0v47.776m50.667-47.776h50.666m-50.666 0v47.776m50.666-47.776H765m-50.667 0v47.776M765 200.215h50.667m-50.667 0v47.776m50.667-47.776h50.666m-50.666 0v47.776m50.666-47.776H917m-50.667 0v47.776M917 200.215h50.667m-50.667 0v47.776m50.667-47.776h50.663m-50.663 0v47.776m50.663-47.776H1069m-50.67 0v47.776m50.67-47.776h50.67m-50.67 0v47.776m50.67-47.776h50.66m-50.66 0v47.776m50.66-47.776v47.776m-810.663 0H309m50.667 0h50.666m-50.666 0v47.777M309 247.991v47.777m101.333-47.777H461m-50.667 0v47.777M461 247.991h50.667m-50.667 0v47.777m50.667-47.777h50.666m-50.666 0v47.777m50.666-47.777H613m-50.667 0v47.777M613 247.991h50.667m-50.667 0v47.777m50.667-47.777h50.666m-50.666 0v47.777m50.666-47.777H765m-50.667 0v47.777M765 247.991h50.667m-50.667 0v47.777m50.667-47.777h50.666m-50.666 0v47.777m50.666-47.777H917m-50.667 0v47.777M917 247.991h50.667m-50.667 0v47.777m50.667-47.777h50.663m-50.663 0v47.777m50.663-47.777H1069m-50.67 0v47.777m50.67-47.777h50.67m-50.67 0v47.777m50.67-47.777h50.66m-50.66 0v47.777m50.66-47.777v47.777m-810.663 0H309m50.667 0h50.666m-50.666 0v47.777M309 295.768v47.777m101.333-47.777H461m-50.667 0v47.777M461 295.768h50.667m-50.667 0v47.777m50.667-47.777h50.666m-50.666 0v47.777m50.666-47.777H613m-50.667 0v47.777M613 295.768h50.667m-50.667 0v47.777m50.667-47.777h50.666m-50.666 0v47.777m50.666-47.777H765m-50.667 0v47.777M765 295.768h50.667m-50.667 0v47.777m50.667-47.777h50.666m-50.666 0v47.777m50.666-47.777H917m-50.667 0v47.777M917 295.768h50.667m-50.667 0v47.777m50.667-47.777h50.663m-50.663 0v47.777m50.663-47.777H1069m-50.67 0v47.777m50.67-47.777h50.67m-50.67 0v47.777m50.67-47.777h50.66m-50.66 0v47.777m50.66-47.777v47.777m-810.663 0H309m50.667 0h50.666m-50.666 0v47.777M309 343.545v47.777h50.667m50.666-47.777H461m-50.667 0v47.777M461 343.545h50.667m-50.667 0v47.777m50.667-47.777h50.666m-50.666 0v47.777m50.666-47.777H613m-50.667 0v47.777M613 343.545h50.667m-50.667 0v47.777m50.667-47.777h50.666m-50.666 0v47.777m50.666-47.777H765m-50.667 0v47.777M765 343.545h50.667m-50.667 0v47.777m50.667-47.777h50.666m-50.666 0v47.777m50.666-47.777H917m-50.667 0v47.777M917 343.545h50.667m-50.667 0v47.777m50.667-47.777h50.663m-50.663 0v47.777m50.663-47.777H1069m-50.67 0v47.777m50.67-47.777h50.67m-50.67 0v47.777m50.67-47.777h50.66m-50.66 0v47.777m50.66-47.777v47.777h-50.66m-760.003 0h50.666m0 0H461m0 0h50.667m0 0h50.666m0 0H613m0 0h50.667m0 0h50.666m0 0H765m0 0h50.667m0 0h50.666m0 0H917m0 0h50.667m0 0h50.663m0 0H1069m0 0h50.67"/></g></g><g opacity=".8" style="mix-blend-mode:plus-lighter"><g filter="url(#l)" opacity=".2"><path fill="url(#m)" d="m1744.55-727 40.31 40.305-707.11 707.107L584.447 490 1037.45-19.893 1744.55-727z"/></g><g filter="url(#n)" opacity=".32"><path fill="url(#o)" d="m1408.55-710 40.31 40.305L741.752 37.412 248.447 507l453-509.893L1408.55-710z"/></g><g filter="url(#p)" opacity=".32"><path fill="url(#q)" d="m1279.55-883 40.31 40.305-707.108 707.107L119.447 334l453-509.893L1279.55-883z"/></g></g><g opacity=".8" style="mix-blend-mode:plus-lighter"><g filter="url(#r)" opacity=".2"><path fill="url(#s)" d="m2440.55-761 40.31 40.305-707.11 707.107L1280.45 456l453-509.893L2440.55-761z"/></g><g filter="url(#t)" opacity=".32"><path fill="url(#u)" d="m2104.55-744 40.31 40.305L1437.75 3.412 944.447 473 1397.45-36.893 2104.55-744z"/></g><g filter="url(#v)" opacity=".32"><path fill="url(#w)" d="m1975.55-917 40.31 40.305-707.11 707.107L815.447 300l453.003-509.893L1975.55-917z"/></g></g><g opacity=".8" style="mix-blend-mode:plus-lighter"><g filter="url(#x)" opacity=".2"><path fill="url(#y)" fill-opacity=".4" d="m2281.56 276.284 48.13 48.13-844.38 844.376-589.071 560.75 540.941-608.88 844.38-844.376z"/></g><g filter="url(#z)" opacity=".32"><path fill="url(#A)" fill-opacity=".4" d="m1880.33 296.584 48.13 48.13-844.38 844.376-589.069 560.75 540.939-608.88 844.38-844.376z"/></g><g filter="url(#B)" opacity=".32"><path fill="url(#C)" fill-opacity=".4" d="m1726.29 90 48.13 48.129-844.381 844.377-589.07 560.754 540.94-608.883L1726.29 90z"/></g></g><g opacity=".8" style="mix-blend-mode:plus-lighter"><g filter="url(#D)" opacity=".2"><path fill="url(#E)" fill-opacity=".4" d="m1224.56 1142.28 48.13 48.13-844.381 844.38-589.07 560.75 540.94-608.88 844.381-844.38z"/></g><g filter="url(#F)" opacity=".32"><path fill="url(#G)" fill-opacity=".4" d="m823.329 1162.58 48.129 48.13-844.376 844.38-589.071 560.75 540.941-608.88 844.377-844.38z"/></g><g filter="url(#H)" opacity=".32"><path fill="url(#I)" fill-opacity=".4" d="m669.286 956 48.13 48.13-844.377 844.38-589.07 560.75 540.94-608.88L669.286 956z"/></g></g></g><defs><filter id="c" width="1478.16" height="1781.62" x="-17.018" y="-589.51" color-interpolation-filters="sRGB" filterUnits="userSpaceOnUse"><feFlood flood-opacity="0" result="BackgroundImageFix"/><feColorMatrix in="SourceAlpha" result="hardAlpha" values="0 0 0 0 0 0 0 0 0 0 0 0 0 0 0 0 0 0 127 0"/><feOffset dx="1.862" dy="27.925"/><feGaussianBlur stdDeviation="30.718"/><feColorMatrix values="0 0 0 0 0.0666667 0 0 0 0 0.0588235 0 0 0 0 0.12549 0 0 0 0.3 0"/><feBlend in2="BackgroundImageFix" result="effect1_dropShadow_211_2859"/><feColorMatrix in="SourceAlpha" result="hardAlpha" values="0 0 0 0 0 0 0 0 0 0 0 0 0 0 0 0 0 0 127 0"/><feOffset dx="5.585" dy="111.7"/><feGaussianBlur stdDeviation="56.781"/><feColorMatrix values="0 0 0 0 0.0666667 0 0 0 0 0.0588235 0 0 0 0 0.12549 0 0 0 0.1 0"/><feBlend in2="effect1_dropShadow_211_2859" result="effect2_dropShadow_211_2859"/><feColorMatrix in="SourceAlpha" result="hardAlpha" values="0 0 0 0 0 0 0 0 0 0 0 0 0 0 0 0 0 0 127 0"/><feOffset dx="14.893" dy="253.187"/><feGaussianBlur stdDeviation="76.328"/><feColorMatrix values="0 0 0 0 0.0666667 0 0 0 0 0.0588235 0 0 0 0 0.12549 0 0 0 0.2 0"/><feBlend in2="effect2_dropShadow_211_2859" result="effect3_dropShadow_211_2859"/><feColorMatrix in="SourceAlpha" result="hardAlpha" values="0 0 0 0 0 0 0 0 0 0 0 0 0 0 0 0 0 0 127 0"/><feOffset dx="26.063" dy="450.523"/><feGaussianBlur stdDeviation="90.291"/><feColorMatrix values="0 0 0 0 0.0666667 0 0 0 0 0.0588235 0 0 0 0 0.12549 0 0 0 0.1 0"/><feBlend in2="effect3_dropShadow_211_2859" result="effect4_dropShadow_211_2859"/><feBlend in="SourceGraphic" in2="effect4_dropShadow_211_2859" result="shape"/></filter><filter id="g" width="1188.5" height="1666.37" x="106" y="-573.75" color-interpolation-filters="sRGB" filterUnits="userSpaceOnUse"><feFlood flood-opacity="0" result="BackgroundImageFix"/><feGaussianBlur in="BackgroundImageFix" stdDeviation="92"/><feComposite in2="SourceAlpha" operator="in" result="effect1_backgroundBlur_211_2859"/><feColorMatrix in="SourceAlpha" result="hardAlpha" values="0 0 0 0 0 0 0 0 0 0 0 0 0 0 0 0 0 0 127 0"/><feOffset dx="1.367" dy="20.512"/><feGaussianBlur stdDeviation="22.564"/><feColorMatrix values="0 0 0 0 0.0666667 0 0 0 0 0.0588235 0 0 0 0 0.12549 0 0 0 0.98 0"/><feBlend in2="effect1_backgroundBlur_211_2859" result="effect2_dropShadow_211_2859"/><feColorMatrix in="SourceAlpha" result="hardAlpha" values="0 0 0 0 0 0 0 0 0 0 0 0 0 0 0 0 0 0 127 0"/><feOffset dx="4.103" dy="82.05"/><feGaussianBlur stdDeviation="41.709"/><feColorMatrix values="0 0 0 0 0.0666667 0 0 0 0 0.0588235 0 0 0 0 0.12549 0 0 0 0.85 0"/><feBlend in2="effect2_dropShadow_211_2859" result="effect3_dropShadow_211_2859"/><feColorMatrix in="SourceAlpha" result="hardAlpha" values="0 0 0 0 0 0 0 0 0 0 0 0 0 0 0 0 0 0 127 0"/><feOffset dx="10.94" dy="185.98"/><feGaussianBlur stdDeviation="56.068"/><feColorMatrix values="0 0 0 0 0.0666667 0 0 0 0 0.0588235 0 0 0 0 0.12549 0 0 0 0.5 0"/><feBlend in2="effect3_dropShadow_211_2859" result="effect4_dropShadow_211_2859"/><feColorMatrix in="SourceAlpha" result="hardAlpha" values="0 0 0 0 0 0 0 0 0 0 0 0 0 0 0 0 0 0 127 0"/><feOffset dx="19.145" dy="330.935"/><feGaussianBlur stdDeviation="66.324"/><feColorMatrix values="0 0 0 0 0.0666667 0 0 0 0 0.0588235 0 0 0 0 0.12549 0 0 0 0.15 0"/><feBlend in2="effect4_dropShadow_211_2859" result="effect5_dropShadow_211_2859"/><feColorMatrix in="SourceAlpha" result="hardAlpha" values="0 0 0 0 0 0 0 0 0 0 0 0 0 0 0 0 0 0 127 0"/><feOffset dx="30.085" dy="516.915"/><feGaussianBlur stdDeviation="72.478"/><feColorMatrix values="0 0 0 0 0.0666667 0 0 0 0 0.0588235 0 0 0 0 0.12549 0 0 0 0.02 0"/><feBlend in2="effect5_dropShadow_211_2859" result="effect6_dropShadow_211_2859"/><feBlend in="SourceGraphic" in2="effect6_dropShadow_211_2859" result="shape"/></filter><filter id="h" width="794" height="957" x="313" y="-318" color-interpolation-filters="sRGB" filterUnits="userSpaceOnUse"><feFlood flood-opacity="0" result="BackgroundImageFix"/><feColorMatrix in="SourceAlpha" result="hardAlpha" values="0 0 0 0 0 0 0 0 0 0 0 0 0 0 0 0 0 0 127 0"/><feOffset dx="1" dy="15"/><feGaussianBlur stdDeviation="16.5"/><feColorMatrix values="0 0 0 0 0.0666667 0 0 0 0 0.0588235 0 0 0 0 0.12549 0 0 0 0.3 0"/><feBlend in2="BackgroundImageFix" result="effect1_dropShadow_211_2859"/><feColorMatrix in="SourceAlpha" result="hardAlpha" values="0 0 0 0 0 0 0 0 0 0 0 0 0 0 0 0 0 0 127 0"/><feOffset dx="3" dy="60"/><feGaussianBlur stdDeviation="30.5"/><feColorMatrix values="0 0 0 0 0.0666667 0 0 0 0 0.0588235 0 0 0 0 0.12549 0 0 0 0.1 0"/><feBlend in2="effect1_dropShadow_211_2859" result="effect2_dropShadow_211_2859"/><feColorMatrix in="SourceAlpha" result="hardAlpha" values="0 0 0 0 0 0 0 0 0 0 0 0 0 0 0 0 0 0 127 0"/><feOffset dx="8" dy="136"/><feGaussianBlur stdDeviation="41"/><feColorMatrix values="0 0 0 0 0.0666667 0 0 0 0 0.0588235 0 0 0 0 0.12549 0 0 0 0.2 0"/><feBlend in2="effect2_dropShadow_211_2859" result="effect3_dropShadow_211_2859"/><feColorMatrix in="SourceAlpha" result="hardAlpha" values="0 0 0 0 0 0 0 0 0 0 0 0 0 0 0 0 0 0 127 0"/><feOffset dx="14" dy="242"/><feGaussianBlur stdDeviation="48.5"/><feColorMatrix values="0 0 0 0 0.0666667 0 0 0 0 0.0588235 0 0 0 0 0.12549 0 0 0 0.1 0"/><feBlend in2="effect3_dropShadow_211_2859" result="effect4_dropShadow_211_2859"/><feBlend in="SourceGraphic" in2="effect4_dropShadow_211_2859" result="shape"/></filter><filter id="l" width="1440.41" height="1457" x="464.447" y="-847" color-interpolation-filters="sRGB" filterUnits="userSpaceOnUse"><feFlood flood-opacity="0" result="BackgroundImageFix"/><feBlend in="SourceGraphic" in2="BackgroundImageFix" result="shape"/><feGaussianBlur result="effect1_foregroundBlur_211_2859" stdDeviation="60"/></filter><filter id="n" width="1440.41" height="1457" x="128.447" y="-830" color-interpolation-filters="sRGB" filterUnits="userSpaceOnUse"><feFlood flood-opacity="0" result="BackgroundImageFix"/><feBlend in="SourceGraphic" in2="BackgroundImageFix" result="shape"/><feGaussianBlur result="effect1_foregroundBlur_211_2859" stdDeviation="60"/></filter><filter id="p" width="1440.41" height="1457" x="-.553" y="-1003" color-interpolation-filters="sRGB" filterUnits="userSpaceOnUse"><feFlood flood-opacity="0" result="BackgroundImageFix"/><feBlend in="SourceGraphic" in2="BackgroundImageFix" result="shape"/><feGaussianBlur result="effect1_foregroundBlur_211_2859" stdDeviation="60"/></filter><filter id="r" width="1440.41" height="1457" x="1160.45" y="-881" color-interpolation-filters="sRGB" filterUnits="userSpaceOnUse"><feFlood flood-opacity="0" result="BackgroundImageFix"/><feBlend in="SourceGraphic" in2="BackgroundImageFix" result="shape"/><feGaussianBlur result="effect1_foregroundBlur_211_2859" stdDeviation="60"/></filter><filter id="t" width="1440.41" height="1457" x="824.447" y="-864" color-interpolation-filters="sRGB" filterUnits="userSpaceOnUse"><feFlood flood-opacity="0" result="BackgroundImageFix"/><feBlend in="SourceGraphic" in2="BackgroundImageFix" result="shape"/><feGaussianBlur result="effect1_foregroundBlur_211_2859" stdDeviation="60"/></filter><filter id="v" width="1440.41" height="1457" x="695.447" y="-1037" color-interpolation-filters="sRGB" filterUnits="userSpaceOnUse"><feFlood flood-opacity="0" result="BackgroundImageFix"/><feBlend in="SourceGraphic" in2="BackgroundImageFix" result="shape"/><feGaussianBlur result="effect1_foregroundBlur_211_2859" stdDeviation="60"/></filter><filter id="x" width="1720.04" height="1739.85" x="752.943" y="132.989" color-interpolation-filters="sRGB" filterUnits="userSpaceOnUse"><feFlood flood-opacity="0" result="BackgroundImageFix"/><feBlend in="SourceGraphic" in2="BackgroundImageFix" result="shape"/><feGaussianBlur result="effect1_foregroundBlur_211_2859" stdDeviation="71.648"/></filter><filter id="z" width="1720.04" height="1739.85" x="351.716" y="153.289" color-interpolation-filters="sRGB" filterUnits="userSpaceOnUse"><feFlood flood-opacity="0" result="BackgroundImageFix"/><feBlend in="SourceGraphic" in2="BackgroundImageFix" result="shape"/><feGaussianBlur result="effect1_foregroundBlur_211_2859" stdDeviation="71.648"/></filter><filter id="B" width="1720.04" height="1739.85" x="197.673" y="-53.295" color-interpolation-filters="sRGB" filterUnits="userSpaceOnUse"><feFlood flood-opacity="0" result="BackgroundImageFix"/><feBlend in="SourceGraphic" in2="BackgroundImageFix" result="shape"/><feGaussianBlur result="effect1_foregroundBlur_211_2859" stdDeviation="71.648"/></filter><filter id="D" width="1720.04" height="1739.85" x="-304.057" y="998.989" color-interpolation-filters="sRGB" filterUnits="userSpaceOnUse"><feFlood flood-opacity="0" result="BackgroundImageFix"/><feBlend in="SourceGraphic" in2="BackgroundImageFix" result="shape"/><feGaussianBlur result="effect1_foregroundBlur_211_2859" stdDeviation="71.648"/></filter><filter id="F" width="1720.04" height="1739.85" x="-705.284" y="1019.29" color-interpolation-filters="sRGB" filterUnits="userSpaceOnUse"><feFlood flood-opacity="0" result="BackgroundImageFix"/><feBlend in="SourceGraphic" in2="BackgroundImageFix" result="shape"/><feGaussianBlur result="effect1_foregroundBlur_211_2859" stdDeviation="71.648"/></filter><filter id="H" width="1720.04" height="1739.85" x="-859.327" y="812.705" color-interpolation-filters="sRGB" filterUnits="userSpaceOnUse"><feFlood flood-opacity="0" result="BackgroundImageFix"/><feBlend in="SourceGraphic" in2="BackgroundImageFix" result="shape"/><feGaussianBlur result="effect1_foregroundBlur_211_2859" stdDeviation="71.648"/></filter><linearGradient id="e" x1="1248.91" x2="1248.91" y1="-70.63" y2="20.595" gradientUnits="userSpaceOnUse"><stop stop-color="#fff" stop-opacity="0"/><stop offset="1" stop-color="#fff"/></linearGradient><linearGradient id="j" x1="993" x2="993" y1="-39.282" y2="9.72" gradientUnits="userSpaceOnUse"><stop stop-color="#fff" stop-opacity="0"/><stop offset="1" stop-color="#fff"/></linearGradient><linearGradient id="m" x1="1764.71" x2="1057.6" y1="-706.847" y2=".259" gradientUnits="userSpaceOnUse"><stop stop-color="#fff"/><stop offset="1" stop-color="#D3D8DF"/></linearGradient><linearGradient id="o" x1="1428.71" x2="721.599" y1="-689.847" y2="17.259" gradientUnits="userSpaceOnUse"><stop stop-color="#fff"/><stop offset="1" stop-color="#D3D8DF"/></linearGradient><linearGradient id="q" x1="1299.71" x2="592.599" y1="-862.847" y2="-155.741" gradientUnits="userSpaceOnUse"><stop stop-color="#fff"/><stop offset="1" stop-color="#D3D8DF"/></linearGradient><linearGradient id="s" x1="2460.71" x2="1753.6" y1="-740.847" y2="-33.741" gradientUnits="userSpaceOnUse"><stop stop-color="#fff"/><stop offset="1" stop-color="#D3D8DF"/></linearGradient><linearGradient id="u" x1="2124.71" x2="1417.6" y1="-723.847" y2="-16.741" gradientUnits="userSpaceOnUse"><stop stop-color="#fff"/><stop offset="1" stop-color="#D3D8DF"/></linearGradient><linearGradient id="w" x1="1995.71" x2="1288.6" y1="-896.847" y2="-189.741" gradientUnits="userSpaceOnUse"><stop stop-color="#fff"/><stop offset="1" stop-color="#D3D8DF"/></linearGradient><linearGradient id="y" x1="2305.62" x2="1461.24" y1="300.349" y2="1144.73" gradientUnits="userSpaceOnUse"><stop stop-color="#fff"/><stop offset="1" stop-color="#D3D8DF"/></linearGradient><linearGradient id="A" x1="1904.39" x2="1060.02" y1="320.649" y2="1165.03" gradientUnits="userSpaceOnUse"><stop stop-color="#fff"/><stop offset="1" stop-color="#D3D8DF"/></linearGradient><linearGradient id="C" x1="1750.35" x2="905.974" y1="114.065" y2="958.441" gradientUnits="userSpaceOnUse"><stop stop-color="#fff"/><stop offset="1" stop-color="#D3D8DF"/></linearGradient><linearGradient id="E" x1="1248.62" x2="404.244" y1="1166.35" y2="2010.73" gradientUnits="userSpaceOnUse"><stop stop-color="#fff"/><stop offset="1" stop-color="#D3D8DF"/></linearGradient><linearGradient id="G" x1="847.394" x2="3.017" y1="1186.65" y2="2031.03" gradientUnits="userSpaceOnUse"><stop stop-color="#fff"/><stop offset="1" stop-color="#D3D8DF"/></linearGradient><linearGradient id="I" x1="693.351" x2="-151.026" y1="980.065" y2="1824.44" gradientUnits="userSpaceOnUse"><stop stop-color="#fff"/><stop offset="1" stop-color="#D3D8DF"/></linearGradient><radialGradient id="b" cx="0" cy="0" r="1" gradientTransform="matrix(-18.0016 2287.91918 -1152.44433 -9.06755 718 -32.92)" gradientUnits="userSpaceOnUse"><stop stop-color="#fff"/><stop offset=".627" stop-color="#666" stop-opacity="0"/></radialGradient><radialGradient id="f" cx="0" cy="0" r="1" gradientTransform="matrix(0 504.019 -802.967 0 777.272 225.8)" gradientUnits="userSpaceOnUse"><stop stop-color="#fff"/><stop offset="1" stop-color="#fff" stop-opacity="0"/></radialGradient><radialGradient id="k" cx="0" cy="0" r="1" gradientTransform="scale(431.316 270.735) rotate(90 .636 1.079)" gradientUnits="userSpaceOnUse"><stop stop-color="#fff"/><stop offset="1" stop-color="#fff" stop-opacity="0"/></radialGradient><clipPath id="a"><rect width="1400" height="2255" fill="#fff" rx="40"/></clipPath><clipPath id="d"><rect width="1117" height="1117" x="137.5" y="-556" fill="#fff" rx="558.5"/></clipPath><clipPath id="i"><rect width="600" height="600" x="396" y="-300" fill="#fff" rx="300"/></clipPath></defs></svg>